OpenSim_Sub04_CSBaseline_LCS.mot
version=1
nRows=44
nColumns=11
inDegrees=no
endheader
time	Bot_Shank	2nd_Bot_Shank	2nd_Top_Shank	Top_Shank	Bot_Thigh	Med_Thigh	Top_Thigh	BNOx	BNOy	BNOZ
20.20000000	10246.21752893	10632.11561120	11070.90864488	11051.08876625	13204.81719949	14160.69842672	14976.98805508	189.64106912	-76.93832311	-170.35481203
20.21000000	10247.20642055	10632.38898307	11069.17699040	11039.04641328	13197.92491947	14158.92470912	14976.88739753	189.10162112	-76.91696122	-186.51017848
20.22000000	10248.01448513	10632.17755939	11065.59997495	11023.46943226	13189.64256818	14156.80006223	14976.72480551	188.57039942	-76.87710090	-194.01874536
20.23000000	10248.61957899	10631.51271920	11060.55864928	11005.18829445	13180.29795173	14154.45015338	14976.50885245	188.04678893	-76.82301109	-194.54099900
20.24000000	10248.99955846	10630.42584154	11054.43406409	10985.03347112	13170.21887622	14152.00064991	14976.24811173	187.53017458	-76.75896077	-189.73742569
20.25000000	10249.13227988	10628.94830546	11047.60727011	10963.83543354	13159.73314776	14149.57721913	14975.95115678	187.01994131	-76.68921889	-181.26851175
20.26000000	10248.99559955	10627.11148999	11040.45931808	10942.42465299	13149.16857247	14147.30552838	14975.62656100	186.51547405	-76.61805443	-170.79474348
20.27000000	10248.56737382	10624.94677418	11033.37125870	10921.63160074	13138.85295644	14145.31124498	14975.28289779	186.01615772	-76.54973634	-159.97660720
20.28000000	10247.82541626	10622.48547143	11026.72335684	10902.28557837	13129.11368636	14143.71978334	14974.92874306	185.52136394	-76.48852084	-150.47188363
20.29000000	10246.73847526	10619.74497926	11020.72927316	10884.96791503	13120.18922882	14142.60293917	14974.57320318	185.02764125	-76.43596091	-143.36477082
20.30000000	10245.25507372	10616.71164703	11015.23095239	10869.70668058	13112.11965798	14141.91287771	14974.22656805	184.52523962	-76.38757829	-138.45972807
20.31000000	10243.32099783	10613.36762310	11010.02004366	10856.45508528	13104.91820422	14141.58557744	14973.89928771	184.00355673	-76.33807863	-135.38805767
20.32000000	10240.88203383	10609.69505579	11004.88819608	10845.16633940	13098.59809789	14141.55701684	14973.60181220	183.45199028	-76.28216760	-133.78106188
20.33000000	10237.88396794	10605.67609346	10999.62705878	10835.79365318	13093.17256936	14141.76317439	14973.34459157	182.85993798	-76.21455086	-133.27004299
20.34000000	10234.27258636	10601.29288444	10994.02828089	10828.29023689	13088.65484901	14142.14002855	14973.13807584	182.21679752	-76.12993406	-133.48630326
20.35000000	10229.99367533	10596.52757708	10987.88351153	10822.60930079	13085.05816719	14142.62355780	14972.99271507	181.51196660	-76.02302288	-134.06114497
20.36000000	10224.99302105	10591.36231973	10980.98439981	10818.70405513	13082.39575428	14143.14974063	14972.91895929	180.73484292	-75.88852297	-134.62587040
20.37000000	10219.21640975	10585.77926071	10973.12259487	10816.52771017	13080.68084063	14143.65455550	14972.92725855	179.87482418	-75.72113999	-134.81178182
20.38000000	10212.61008013	10579.76056606	10964.09049260	10816.03272598	13079.92636643	14144.07408689	14973.02801337	178.92135231	-75.51558991	-134.25092452
20.39000000	10205.21619576	10573.29214732	10953.83880701	10817.01252146	13080.08374973	14144.36689149	14973.22112879	177.87324650	-75.26877373	-132.73286243
20.40000000	10197.29094129	10566.36827291	10942.67148062	10818.90567369	13080.96714467	14144.54166445	14973.48309305	176.75024780	-74.98246754	-130.39860439
20.41000000	10189.11945983	10558.98434194	10930.94025011	10821.10274734	13082.37213270	14144.61388498	14973.78722592	175.57492814	-74.65910705	-127.43671203
20.42000000	10180.98689450	10551.13575356	10918.99685217	10822.99430705	13084.09429523	14144.59903230	14974.10684717	174.36985945	-74.30112799	-124.03574700
20.43000000	10173.17838840	10542.81790689	10907.19302345	10823.97091748	13085.92921370	14144.51258563	14974.41527656	173.15761367	-73.91096607	-120.38427094
20.44000000	10165.97908464	10534.02620106	10895.88050065	10823.42314329	13087.67246955	14144.37002417	14974.68583389	171.96076271	-73.49105702	-116.67084547
20.45000000	10159.67412633	10524.75603521	10885.41102043	10820.74154913	13089.11964419	14144.18682716	14974.89183891	170.80187850	-73.04383656	-113.08403225
20.46000000	10154.54855088	10515.00283770	10876.13621832	10815.31690303	13090.06637097	14143.97847349	14975.00661748	169.70352701	-72.57173942	-109.81235224
20.47000000	10150.74712203	10504.80083930	10868.27351386	10806.80984470	13090.37715798	14143.76005058	14975.01157088	168.68034550	-72.07590242	-106.99037153
20.48000000	10147.99779947	10494.29956679	10861.64152194	10795.68290094	13090.12116531	14143.54548250	14974.91209530	167.72341224	-71.55360573	-104.59233655
20.49000000	10145.95148223	10483.66986340	10855.98512463	10782.54685507	13089.40539003	14143.34847823	14974.71802327	166.81944978	-71.00141652	-102.56285312
20.50000000	10144.25906932	10473.08257239	10851.04920399	10768.01249043	13088.33682923	14143.18274675	14974.43918728	165.95518070	-70.41590193	-100.84652704
20.51000000	10142.57145977	10462.70853698	10846.57864209	10752.69059039	13087.02247999	14143.06199705	14974.08541986	165.11732755	-69.79362912	-99.38796412
20.52000000	10140.53955261	10452.71860043	10842.31832099	10737.19193826	13085.56933940	14142.99993810	14973.66655351	164.29261291	-69.13116523	-98.13177015
20.53000000	10137.81424687	10443.28360597	10838.01312275	10722.12731740	13084.08440453	14143.01027891	14973.19242075	163.46775934	-68.42507742	-97.02255095
20.54000000	10134.04644156	10434.57439684	10833.40792946	10708.10751115	13082.67467248	14143.10672845	14972.67285408	162.62948940	-67.67193284	-96.00491233
20.55000000	10128.88703572	10426.76181628	10828.24762316	10695.74330286	13081.44714033	14143.30299570	14972.11768602	161.76452566	-66.86829863	-95.02346009
20.56000000	10121.98692836	10420.01670753	10822.27708593	10685.64547586	13080.50880515	14143.61278964	14971.53674907	160.85959068	-66.01074196	-94.02280003
20.57000000	10112.99716525	10414.50985032	10815.24131339	10678.42471244	13079.96668785	14144.04981008	14970.93985484	159.90141091	-65.09583197	-92.94755504
20.58000000	10101.76348988	10410.32772929	10807.03600201	10674.55758931	13079.95941239	14144.61555822	14970.30906069	158.88185564	-64.12277743	-91.76500725
20.59000000	10088.71016373	10407.30635782	10798.00463521	10674.12220672	13080.71950688	14145.27528881	14969.54395607	157.80807541	-63.09863051	-90.50976763
20.60000000	10074.36840731	10405.23544097	10788.57348537	10677.12299277	13082.49686090	14145.98755524	14968.52888338	156.69004607	-62.03189347	-89.22889524
20.61000000	10059.26944115	10403.90468381	10779.16882486	10683.56437554	13085.54136401	14146.71091085	14967.14818502	155.53774345	-60.93106858	-87.96944914
20.62000000	10043.94448578	10403.10379143	10770.21692603	10693.45078313	13090.10290578	14147.40390900	14965.28620340	154.36114338	-59.80465810	-86.77848839
20.63000000	10028.92476170	10402.62246888	10762.14406125	10706.78664362	13096.43137578	14148.02510306	14962.82728091	153.17022169	-58.66116431	-85.70307202
